<svg xmlns:xlink="http://www.w3.org/1999/xlink" xmlns="http://www.w3.org/2000/svg" xmlns:svg="http://www.w3.org/2000/svg" width="557.3864114332941" height="179.40875118009157" viewBox="0 0 80 25.656" version="1.1" id="svg16">
  <defs id="defs15">
    <pattern xlink:href="#_2002046508__f" id="pattern16" patternTransform="translate(0,-0.56)"/>
    <radialGradient id="_2002046508__a" cx="0" cy="0" r="1" gradientTransform="matrix(16.80002,-17.28,11.48403,11.16504,40.96,29)" gradientUnits="userSpaceOnUse">
      <stop offset="0" stop-color="#6420FF" id="stop1"/>
      <stop offset="1" stop-color="#6420FF" stop-opacity="0" id="stop2"/>
    </radialGradient>
    <radialGradient id="_2002046508__b" cx="0" cy="0" r="1" gradientTransform="matrix(46.71996,4.16,-3.31561,37.23688,1.92,17.64)" gradientUnits="userSpaceOnUse">
      <stop offset=".25" stop-color="#00C4CC" id="stop3"/>
      <stop offset="1" stop-color="#00C4CC" stop-opacity="0" id="stop4"/>
    </radialGradient>
    <radialGradient id="_2002046508__c" cx="0" cy="0" r="1" gradientTransform="matrix(23.539732,-18.960276,12.964448,16.095738,34.137074,26.202638)" gradientUnits="userSpaceOnUse">
      <stop offset="0" stop-color="#6420FF" id="stop5"/>
      <stop offset="1" stop-color="#6420FF" stop-opacity="0" id="stop6"/>
    </radialGradient>
    <radialGradient id="_2002046508__d" cx="0" cy="0" r="1" gradientTransform="matrix(31.32001,-15.36,10.50269,21.41566,2.28,26.2)" gradientUnits="userSpaceOnUse">
      <stop offset="0" stop-color="#6420FF" id="stop7"/>
      <stop offset="1" stop-color="#6420FF" stop-opacity="0" id="stop8"/>
    </radialGradient>
    <radialGradient id="_2002046508__e" cx="0" cy="0" r="1" gradientTransform="matrix(67.99982,15.03996,-18.44596,83.39925,7.68,2.92)" gradientUnits="userSpaceOnUse">
      <stop offset="0" stop-color="#00C4CC" id="stop9"/>
      <stop offset="1" stop-color="#00C4CC" stop-opacity="0" id="stop10"/>
    </radialGradient>
    <pattern id="_2002046508__f" width="1" height="1">
      <path fill="#7D2AE7" d="M0 0h100v100H0z" id="path10"/>
      <path fill="url(#_2002046508__a)" d="M0 0h100v100H0z" id="path11"/>
      <path fill="url(#_2002046508__b)" d="M0 0h100v100H0z" id="path12"/>
      <path fill="url(#_2002046508__c)" d="M0 0h100v100H0z" id="path13"/>
      <path fill="url(#_2002046508__d)" d="M0 0h100v100H0z" id="path14"/>
      <path fill="url(#_2002046508__e)" d="M0 0h100v100H0z" id="path15"/>
    </pattern>
  </defs>
  <path fill="url(#_2002046508__f)" d="m 79.444,17.536 c -0.136,0 -0.26,0.088 -0.324,0.272 -0.82,2.34 -1.928,3.732 -2.84,3.732 -0.524,0 -0.736,-0.584 -0.736,-1.5 0,-2.292 1.372,-7.152 2.064,-9.368 C 77.688,10.404 77.74,10.164 77.74,9.96 77.74,9.316 77.388,9 76.516,9 75.576,9 74.564,9.368 73.58,11.092 73.24,9.572 72.212,8.908 70.776,8.908 c -1.66,0 -3.264,1.068 -4.584,2.8 -1.32,1.732 -2.872,2.3 -4.04,2.02 0.84,-2.056 1.152,-3.592 1.152,-4.732 0,-1.788 -0.884,-2.868 -2.312,-2.868 -2.172,0 -3.424,2.072 -3.424,4.252 0,1.684 0.764,3.416 2.444,4.256 -1.408,3.184 -3.464,6.064 -4.244,6.064 -1.008,0 -1.304,-4.932 -1.248,-8.46 0.036,-2.024 0.204,-2.128 0.204,-2.74 0,-0.352 -0.228,-0.592 -1.144,-0.592 -2.136,0 -2.796,1.808 -2.896,3.884 a 10.233,10.233 0 0 1 -0.368,2.332 c -0.892,3.184 -2.732,5.6 -3.932,5.6 -0.556,0 -0.708,-0.556 -0.708,-1.284 0,-2.292 1.284,-5.156 1.284,-7.6 0,-1.796 -0.788,-2.932 -2.272,-2.932 -1.748,0 -4.06,2.08 -6.248,5.976 C 39.16,11.9 39.456,9.012 37.324,9.012 A 2.886,2.886 0 0 0 36,9.356 0.752,0.752 0 0 0 35.568,10.084 c 0.204,3.176 -2.56,11.312 -5.18,11.312 -0.476,0 -0.708,-0.516 -0.708,-1.348 0,-2.296 1.368,-7.144 2.056,-9.364 0.088,-0.288 0.136,-0.536 0.136,-0.752 0,-0.608 -0.376,-0.92 -1.228,-0.92 -0.936,0 -1.952,0.356 -2.932,2.08 -0.344,-1.52 -1.372,-2.184 -2.808,-2.184 -2.356,0 -4.988,2.492 -6.144,5.74 -1.548,4.336 -4.668,8.524 -8.868,8.524 C 6.08,23.172 4.068,20 4.068,14.988 4.068,7.752 9.38,1.84 13.32,1.84 c 1.884,0 2.784,1.2 2.784,3.04 0,2.228 -1.244,3.264 -1.244,4.112 0,0.26 0.216,0.516 0.644,0.516 1.712,0 3.728,-2.012 3.728,-4.756 C 19.232,2.008 17.004,0 13.064,0 6.552,0 0,6.552 0,14.948 c 0,6.68 3.296,10.708 8.996,10.708 3.888,0 7.284,-3.024 9.116,-6.552 0.208,2.924 1.536,4.452 3.56,4.452 1.8,0 3.256,-1.072 4.368,-2.956 0.428,1.972 1.564,2.936 3.04,2.936 1.692,0 3.108,-1.072 4.456,-3.064 -0.02,1.564 0.336,3.036 1.692,3.036 0.64,0 1.404,-0.148 1.54,-0.708 1.428,-5.904 4.956,-10.724 6.036,-10.724 0.32,0 0.408,0.308 0.408,0.672 0,1.604 -1.132,4.892 -1.132,6.992 0,2.268 0.964,3.768 2.956,3.768 2.208,0 4.452,-2.704 5.948,-6.656 0.468,3.692 1.48,6.672 3.064,6.672 1.944,0 5.396,-4.092 7.488,-8.424 0.82,0.104 2.052,0.076 3.236,-0.76 -0.504,1.276 -0.8,2.672 -0.8,4.068 0,4.02 1.92,5.148 3.572,5.148 1.796,0 3.252,-1.072 4.368,-2.956 0.368,1.7 1.308,2.932 3.036,2.932 2.704,0 5.052,-2.764 5.052,-5.032 0,-0.6 -0.256,-0.964 -0.556,-0.964 z M 23.32,21.328 c -1.092,0 -1.52,-1.1 -1.52,-2.74 0,-2.848 1.948,-7.604 4.008,-7.604 0.9,0 1.24,1.06 1.24,2.356 0,2.892 -1.852,7.988 -3.728,7.988 z m 37.404,-8.5 c -0.652,-0.776 -0.888,-1.832 -0.888,-2.772 0,-1.16 0.424,-2.14 0.932,-2.14 0.508,0 0.664,0.5 0.664,1.196 0,1.164 -0.416,2.864 -0.708,3.716 z m 8.468,8.5 c -1.092,0 -1.52,-1.264 -1.52,-2.74 0,-2.748 1.948,-7.604 4.024,-7.604 0.9,0 1.22,1.052 1.22,2.356 0,2.892 -1.82,7.988 -3.724,7.988 z" id="path16" style="fill:url(#pattern16)"/>
</svg>