<svg xmlns="http://www.w3.org/2000/svg"  viewBox="0.0 0.0 698.0 582.5" width="346.274924279844" height="288.78787630369806"><title>Midjourney logo</title><path id="waves" d="M-43,680c20,0,50-42,85-48,20,0,35,42,85,48,35,0,50-42,85-42s50,42,85,42,50-42,85-42,50,42,85,42,50-42,85-42,50,42,85,42" transform="translate(52 -106.5)" style="fill:none;stroke:#000;stroke-linecap:round;stroke-linejoin:round;stroke-width:18px"/><path id="hull" d="M25.4,638.2,2.5,594.4l590-38c-46.4,42.2-106,76.4-166.3,104.4" transform="translate(52 -106.5)" style="fill:none;stroke:#000;stroke-linecap:round;stroke-linejoin:round;stroke-width:18px"/><path id="front_sail" d="M237.4,186.4c100.4,30.7,240.8,179,288.6,338.4-26.2-10.3-45.8-20.8-82.6-11.4C407.8,383.9,344.1,260.2,237.4,186.4Z" transform="translate(52 -106.5)" style="fill:none;stroke:#000;stroke-linecap:round;stroke-linejoin:round;stroke-width:18px"/><path id="rear_sail" d="M50.7,115.5c128.6,55,305,208.1,337.4,412-148.3-59.8-261.2-27.9-339.8,20.6C168.2,395.7,114.4,222.4,50.7,115.5Z" transform="translate(52 -106.5)" style="fill:none;stroke:#000;stroke-linecap:round;stroke-linejoin:round;stroke-width:18px"/></svg>